<?xml version="1.0" encoding="UTF-8"?>
<svg version="1.1" xmlns="http://www.w3.org/2000/svg" width="100" height="100">
<path d="M0 0 C10.06866931 7.25087772 17.72756886 16.79280068 20.3125 29.25 C21.70668558 45.91292143 19.18676434 58.15716957 8.640625 71.33984375 C2.22382219 78.48333577 -8.09918475 84.61508614 -17.80297852 85.42700195 C-34.86566428 85.88895149 -46.79126814 83.44661518 -59.8125 71.75 C-70.07212814 61.14084545 -72.17133125 48.37416494 -71.96484375 34.2578125 C-71.50503107 21.94581333 -64.87448062 11.59167312 -56.171875 3.17578125 C-39.79726859 -9.51711334 -17.57628553 -10.86641977 0 0 Z M-37.6875 20.25 C-37.6875 32.79 -37.6875 45.33 -37.6875 58.25 C-27.52814351 53.1898508 -27.52814351 53.1898508 -17.75 47.5625 C-17.13060547 47.18544922 -16.51121094 46.80839844 -15.87304688 46.41992188 C-14.14270678 45.36627164 -12.41501342 44.30827835 -10.6875 43.25 C-9.71683594 42.70730469 -8.74617188 42.16460937 -7.74609375 41.60546875 C-7.06675781 41.15816406 -6.38742188 40.71085937 -5.6875 40.25 C-5.6875 39.59 -5.6875 38.93 -5.6875 38.25 C-7.85458558 36.69361162 -7.85458558 36.69361162 -10.65625 35.1328125 C-11.70296875 34.52566406 -12.7496875 33.91851562 -13.828125 33.29296875 C-15.49101563 32.34357422 -15.49101563 32.34357422 -17.1875 31.375 C-18.80398437 30.43720703 -18.80398437 30.43720703 -20.453125 29.48046875 C-26.13437164 26.20335941 -31.80758632 23.18995684 -37.6875 20.25 Z " fill="#F9AF04" transform="translate(75.6875,10.75)"/>
</svg>
